# Blender v3.0.0 OBJ File: 'Rock.blend'
# www.blender.org
mtllib rock_2.mtl
o Icosphere
v -0.158404 -0.424289 0.712977
v -0.291530 -0.296883 0.911028
v -0.568395 -0.363069 0.591768
v -0.299207 -0.544221 0.382897
v -0.564593 -0.379358 0.446109
v -0.823924 -0.197621 0.386202
v -0.611094 -0.094412 0.632189
v -0.503897 0.246599 0.739354
v -0.266993 0.415488 0.736203
v -0.364312 0.496796 0.548668
v -0.540279 0.291419 0.575287
v -0.793558 0.278365 0.320583
v -0.646543 0.415059 0.155712
v -0.606142 0.095397 0.628707
v -0.509048 -0.550839 -0.127042
v -0.489968 -0.288509 -0.483302
v -0.224823 -0.175588 -0.985498
v -0.115139 -0.426737 -0.625032
v -1.001608 -0.232073 -0.163689
v -0.713245 -0.437846 -0.139157
v -0.716614 -0.042538 -0.639827
v -0.497929 0.280598 -0.480143
v -0.427279 0.565983 -0.302878
v -0.204894 0.433559 -0.686206
v -0.472487 0.146767 -0.850295
v -0.697111 0.401500 -0.269165
v -0.879036 0.275924 -0.216640
v -0.688708 0.107269 -0.654556
v 0.280703 -0.544280 0.423876
v 0.531540 -0.343088 0.568729
v 0.216461 -0.065225 1.058951
v 0.098282 -0.424352 0.672827
v 0.625972 -0.436387 0.277770
v 0.824637 -0.199632 0.452587
v 0.646412 -0.117836 0.672489
v 0.550795 0.361889 0.559549
v 0.304246 0.551766 0.334165
v 0.135897 0.436570 0.748743
v 0.201793 0.255951 1.000220
v 0.847615 0.193081 0.398016
v 0.648516 0.406260 0.165015
v 0.634975 0.099009 0.650510
v 0.188081 -0.402743 -0.657355
v 0.340540 -0.078875 -0.983064
v 0.518040 -0.294805 -0.502756
v 0.563275 -0.534135 -0.282789
v 0.956470 -0.182558 -0.336795
v 0.720422 -0.428873 -0.267776
v 0.660380 -0.095574 -0.657146
v 0.240430 0.296291 -0.916943
v 0.139784 0.451829 -0.720616
v 0.323350 0.612074 -0.172396
v 0.581847 0.355141 -0.570989
v 0.678130 0.428108 -0.164491
v 0.969997 0.206039 -0.212475
v 0.671010 0.119821 -0.663256
vn -0.2528 -0.8748 0.4134
vn -0.5491 -0.8320 0.0787
vn -0.7057 -0.2138 0.6755
vn -0.5774 0.6737 0.4612
vn -0.5683 0.7391 0.3617
vn -0.7406 0.3966 0.5424
vn -0.4574 -0.7493 -0.4790
vn -0.4140 -0.7058 -0.5749
vn -0.4638 -0.7386 -0.4892
vn -0.6376 0.6361 -0.4345
vn -0.4636 0.5058 -0.7275
vn -0.3776 0.8296 -0.4114
vn 0.2840 -0.7514 0.5956
vn 0.4741 -0.7820 0.4046
vn 0.5187 -0.5615 0.6447
vn 0.3444 0.8372 0.4248
vn 0.5190 0.8256 0.2214
vn 0.6388 0.4262 0.6406
vn 0.4857 -0.6542 -0.5798
vn 0.4233 -0.5803 -0.6957
vn 0.4369 -0.7249 -0.5326
vn 0.3229 0.8578 -0.3998
vn 0.5007 0.8236 -0.2664
vn 0.6399 0.4783 -0.6014
vn 0.1403 -0.7590 0.6358
vn -0.0005 -0.9239 0.3827
vn -0.2007 0.6391 0.7425
vn -0.0092 0.9509 0.3093
vn 0.0846 -0.7663 -0.6369
vn -0.0101 -0.9596 -0.2812
vn -0.1746 0.6607 -0.7300
vn -0.0296 0.9533 -0.3007
vn -0.5854 -0.7769 0.2319
vn -0.4812 -0.8515 0.2081
vn 0.7266 -0.6781 0.1107
vn 0.4126 -0.9040 0.1115
vn -0.5930 0.8021 0.0705
vn -0.4483 0.8904 0.0787
vn 0.6298 0.7658 0.1302
vn 0.4448 0.8884 0.1132
vn -0.7991 0.1038 0.5922
vn -0.6794 -0.0170 0.7336
vn -0.8780 0.1542 -0.4531
vn -0.6123 -0.0844 -0.7861
vn 0.7680 0.0655 0.6371
vn 0.6621 0.1425 0.7357
vn 0.7887 0.0876 -0.6085
vn 0.6295 0.1724 -0.7576
vn -0.9581 0.1761 0.2259
vn 0.9823 -0.0617 0.1771
vn -0.3431 0.1567 0.9261
vn -0.0935 0.2328 -0.9680
vn 0.0099 -0.9999 -0.0023
vn -0.0650 0.9932 0.0968
usemtl None
s off
f 1//1 2//1 3//1 4//1
f 5//2 4//2 3//2 6//2
f 7//3 6//3 3//3 2//3
f 8//4 9//4 10//4 11//4
f 12//5 11//5 10//5 13//5
f 8//6 11//6 12//6 14//6
f 15//7 16//7 17//7 18//7
f 19//8 16//8 15//8 20//8
f 19//9 21//9 17//9 16//9
f 22//10 23//10 24//10 25//10
f 26//11 23//11 22//11 27//11
f 22//12 25//12 28//12 27//12
f 29//13 30//13 31//13 32//13
f 29//14 33//14 34//14 30//14
f 31//15 30//15 34//15 35//15
f 36//16 37//16 38//16 39//16
f 36//17 40//17 41//17 37//17
f 42//18 40//18 36//18 39//18
f 43//19 44//19 45//19 46//19
f 45//20 47//20 48//20 46//20
f 45//21 44//21 49//21 47//21
f 50//22 51//22 52//22 53//22
f 52//23 54//23 55//23 53//23
f 55//24 56//24 50//24 53//24
f 1//25 32//25 31//25 2//25
f 1//26 4//26 29//26 32//26
f 8//27 39//27 38//27 9//27
f 38//28 37//28 10//28 9//28
f 17//29 44//29 43//29 18//29
f 15//30 18//30 43//30 46//30
f 24//31 51//31 50//31 25//31
f 52//32 51//32 24//32 23//32
f 5//33 6//33 19//33 20//33
f 5//34 20//34 15//34 4//34
f 48//35 47//35 34//35 33//35
f 29//36 46//36 48//36 33//36
f 12//37 13//37 26//37 27//37
f 10//38 23//38 26//38 13//38
f 55//39 54//39 41//39 40//39
f 41//40 54//40 52//40 37//40
f 7//41 14//41 12//41 6//41
f 7//42 2//42 8//42 14//42
f 19//43 27//43 28//43 21//43
f 28//44 25//44 17//44 21//44
f 34//45 40//45 42//45 35//45
f 31//46 35//46 42//46 39//46
f 49//47 56//47 55//47 47//47
f 50//48 56//48 49//48 44//48
f 6//49 12//49 27//49 19//49
f 47//50 55//50 40//50 34//50
f 2//51 31//51 39//51 8//51
f 25//52 50//52 44//52 17//52
f 4//53 15//53 46//53 29//53
f 37//54 52//54 23//54 10//54
